# xmcd CD database file
#
# Track frame offsets:
#	150
#	9820
#	18837
#	28265
#	38917
#	56762
#	70580
#	80365
#	91255
#	99710
#	115685
#	127147
#	144700
#	169722
#	180657
#	198245
#
# Disc length: 2807 seconds
#
# Revision: 10
# Processed by: cddbd v1.5.2PL0 Copyright (c) Steve Scherf et al.
# Submitted via: CDex 1.40Beta8
#
DISCID=cd0af510
DTITLE=Cash, Johnny - God
DYEAR=2000
DGENRE=Darkwave
TTITLE0=What On Earth Will You Do (For Heaven's Sake)
TTITLE1=My God Is Real
TTITLE2=It Was Jesus
TTITLE3=Why Me Lord (Mono)
TTITLE4=The Greatest Cowboy Of Them All
TTITLE5=Redemption (Mono)
TTITLE6=The Great Speckled Bird
TTITLE7=The Old Account
TTITLE8=Swing Low, Sweet Chariot
TTITLE9=When He Comes
TTITLE10=The Kneeling Drunkard's Plea
TTITLE11=Were You There (When They Crucified My Lord)
TTITLE12=Man In White
TTITLE13=Belshazzar (Mono)
TTITLE14=Oh, Bury Me Not (Introduction: A Cowboy's Prayer) (Mono)
TTITLE15=Oh Come, Angel Band
EXTD=YEAR: 2000 ID3G: 50
EXTT0=
EXTT1=
EXTT2=
EXTT3=
EXTT4=
EXTT5=
EXTT6=
EXTT7=
EXTT8=
EXTT9=
EXTT10=
EXTT11=
EXTT12=
EXTT13=
EXTT14=
EXTT15=
PLAYORDER=
